<svg xmlns="http://www.w3.org/2000/svg" width="1024" height="1024" viewBox="0 0 1024 1024"><defs><linearGradient id="bgt" x1="0" y1="0" x2="0" y2="1"><stop offset="0" stop-color="#34457a"/><stop offset="0.55" stop-color="#17213f"/><stop offset="1" stop-color="#080b16"/></linearGradient><linearGradient id="sht" x1="0" y1="0" x2="0" y2="1"><stop offset="0" stop-color="#ffffff" stop-opacity="0.22"/><stop offset="0.48" stop-color="#ffffff" stop-opacity="0"/></linearGradient></defs><rect x="0" y="0" width="1024" height="1024" rx="230" fill="url(#bgt)"/><rect x="0" y="0" width="1024" height="1024" rx="230" fill="url(#sht)"/><rect x="1.7066666666666668" y="1.7066666666666668" width="1020.5866666666667" height="1020.5866666666667" rx="228.29333333333332" fill="none" stroke="#ffffff" stroke-opacity="0.16" stroke-width="3.4133333333333336"/><g transform="translate(512.0 512.0) scale(8.6016) translate(-50 -50)"><path d="M17.5 23.5 A5.5 5.5 0 0 1 28.5 23.5 V76.5 A5.5 5.5 0 0 1 17.5 76.5 Z" fill="#0070f3" fill-opacity="1"/><path d="M35.5 30.5 A5.5 5.5 0 0 1 46.5 30.5 V69.5 A5.5 5.5 0 0 1 35.5 69.5 Z" fill="#ffffff" fill-opacity="0.72"/><path d="M53.5 37.5 A5.5 5.5 0 0 1 64.5 37.5 V62.5 A5.5 5.5 0 0 1 53.5 62.5 Z" fill="#ffffff" fill-opacity="0.46"/><path d="M71.5 44.5 A5.5 5.5 0 0 1 82.5 44.5 V55.5 A5.5 5.5 0 0 1 71.5 55.5 Z" fill="#ffffff" fill-opacity="0.26"/></g></svg>